Coordinates
version=1
nRows=13
nColumns=30
inDegrees=yes

Units are S.I. units (second, meters, Newtons, ...)
Angles are in degrees.

endheader
time	floatyaw	floatroll	floatpitch	floatx	floaty	floatz	pro_sup_l	deviation_l	flexion_l	cmc_flexion_l	cmc_abduction_l	mp_flexion_l	ip_flexion_l	2mcp_flexion_l	2mcp_abduction_l	2pm_flexion_l	2md_flexion_l	3mcp_flexion_l	3mcp_abduction_l	3pm_flexion_l	3md_flexion_l	4mcp_flexion_l	4mcp_abduction_l	4pm_flexion_l	4md_flexion_l	5mcp_flexion_l	5mcp_abduction_l	5pm_flexion_l	5md_flexion_l
-0.995000	-160.147433	-5.066637	-73.570646	0.078186	-0.178984	-0.019269	102.240104	6.632597	-1.519968	13.246423	11.056023	-25.562508	-41.528161	28.872667	6.792823	44.250512	30.282061	25.416457	4.239502	44.618879	29.487238	14.786995	-4.253891	52.102094	36.245913	1.532326	-8.281591	62.530744	43.744430
-0.985000	-160.147433	-5.066637	-73.570646	0.077761	-0.178692	-0.019463	102.181620	6.753273	-1.613150	13.190312	11.196488	-25.490613	-41.446719	28.872214	6.782913	44.268484	30.305905	25.394238	4.248245	44.604750	29.531820	14.809430	-4.247297	52.089530	36.285751	1.547397	-8.280054	62.560751	43.820516
-0.975000	-160.147433	-5.066637	-73.570646	0.077301	-0.178378	-0.019661	102.117637	6.872939	-1.705775	13.149559	11.338911	-25.380751	-41.336986	28.820579	6.759950	44.233817	30.305548	25.327536	4.253120	44.547079	29.557672	14.780737	-4.235070	52.042653	36.307564	1.546758	-8.279358	62.531468	43.866996
-0.965000	-160.147433	-5.066637	-73.570646	0.076818	-0.178045	-0.019859	102.060349	6.988864	-1.799144	13.127198	11.459820	-25.259036	-41.234597	28.732313	6.730347	44.164095	30.291679	25.244736	4.254417	44.462291	29.567327	14.732138	-4.220268	51.962620	36.312755	1.541717	-8.281382	62.449377	43.885166
-0.955000	-160.147433	-5.066637	-73.570646	0.076326	-0.177694	-0.020058	102.019503	7.102225	-1.901356	13.124336	11.532857	-25.153416	-41.164720	28.635908	6.700715	44.082528	30.278355	25.176582	4.253340	44.371624	29.572158	14.696580	-4.207185	51.863019	36.315371	1.544105	-8.283357	62.339156	43.885875
-0.945000	-160.147433	-5.066637	-73.570646	0.075828	-0.177326	-0.020260	102.002846	7.217254	-2.021191	13.136327	11.543504	-25.085137	-41.136001	28.561756	6.676304	44.010182	30.279306	25.145220	4.251668	44.297117	29.589782	14.696283	-4.199703	51.767995	36.338471	1.561338	-8.280714	62.238791	43.887540
-0.935000	-160.147433	-5.066637	-73.570646	0.075326	-0.176946	-0.020467	102.015787	7.338469	-2.159834	13.150949	11.500680	-25.063225	-41.143666	28.528783	6.660178	43.960833	30.304079	25.157697	4.251360	44.256008	29.636123	14.736597	-4.199780	51.703396	36.403286	1.593088	-8.271315	62.189377	43.910510
-0.925000	-160.147433	-5.066637	-73.570646	0.074814	-0.176564	-0.020678	102.060687	7.467131	-2.306106	13.151575	11.436059	-25.082884	-41.176908	28.537031	6.653445	43.939594	30.354706	25.207062	4.254166	44.255388	29.715784	14.808918	-4.206906	51.685748	36.516602	1.632239	-8.258053	62.221602	43.968807
-0.915000	-160.147433	-5.066637	-73.570646	0.074296	-0.176203	-0.020891	102.136822	7.598799	-2.439060	13.124593	11.390236	-25.127854	-41.224358	28.569804	6.656244	43.944911	30.424866	25.279890	4.261324	44.290396	29.817274	14.900074	-4.218655	51.715921	36.664479	1.670662	-8.248179	62.342999	44.063025
-0.905000	-160.147433	-5.066637	-73.570646	0.073779	-0.175889	-0.021100	102.241312	7.723601	-2.536712	13.066678	11.394355	-25.176182	-41.275652	28.603222	6.668677	43.972260	30.503061	25.365196	4.273381	44.347569	29.917541	15.001484	-4.231766	51.781288	36.817489	1.706304	-8.250210	62.531636	44.179310
-0.895000	-160.147433	-5.066637	-73.570646	0.073273	-0.175644	-0.021301	102.369815	7.829417	-2.585405	12.987137	11.457909	-25.207766	-41.321249	28.617878	6.691046	44.017087	30.578420	25.459531	4.290113	44.411270	29.993717	15.112433	-4.243146	51.864046	36.945080	1.746221	-8.270496	62.740961	44.296519
-0.885000	-160.147433	-5.066637	-73.570646	0.072791	-0.175478	-0.021490	102.515537	7.906477	-2.584302	12.903785	11.567788	-25.211054	-41.353097	28.607736	6.723323	44.075078	30.645021	25.566285	4.310439	44.469043	30.034468	15.236880	-4.250598	51.949034	37.030217	1.802386	-8.310869	62.916457	44.398158
-0.875000	-160.147433	-5.066637	-73.570646	0.072342	-0.175383	-0.021670	102.666917	7.951117	-2.543370	12.834855	11.696677	-25.186305	-41.366697	28.583018	6.764247	44.140132	30.701787	25.690476	4.332349	44.513569	30.044111	15.377362	-4.253412	52.026106	37.075700	1.882093	-8.367644	63.018760	44.482029
